<svg id="Layer_2" data-name="Layer 2" xmlns="http://www.w3.org/2000/svg" width="100%" height="100%" viewBox="0 0 75 75">
  <defs>
    <style>
      .cls-1 {
        fill: #fff;
      }
    </style>
  </defs>
  <title>logo-pucpr-vermelha</title>
  <g transform="translate(7.5,0)">
    <g transform="translate(-0.32,0)">
      <g>
        <path class="cls-1" d="M12.78055,56.47661l.22716.43561a.45374.45374,0,0,0-.2275.66741.42909.42909,0,0,0,.62663.21106c.58784-.30658-.02471-1.56335.85493-2.02218a.83959.83959,0,0,1,1.17206.42144.87752.87752,0,0,1-.39872,1.257l-.22716-.43561a.417.417,0,0,0,.21785-.60319.37957.37957,0,0,0-.5453-.19971c-.57942.30224.0692,1.54555-.84852,2.02425a.97619.97619,0,0,1-.85143-1.7561Z"/>
        <path class="cls-1" d="M14.01648,58.63453l1.13341-.77572A.92159.92159,0,0,1,16.556,58.064.93833.93833,0,0,1,16.27,59.46187l-.26923-.39364c.30654-.24453.35527-.48582.17481-.74955-.15892-.23224-.41752-.28071-.74828-.05445L14.29372,59.04c-.3266.22367-.37507.48216-.21073.72225.18306.26767.42972.307.76337.11907l.26935.39364a.94507.94507,0,0,1-1.41053-.25413A.92316.92316,0,0,1,14.01648,58.63453Z"/>
        <path class="cls-1" d="M17.63573,59.56278,15.08483,61.717l-.31078-.368,2.55079-2.15422Z"/>
        <path class="cls-1" d="M17.20834,63.23521l-.314.32646-1.213-1.16744L17.99645,59.989l1.17842,1.13434-.314.32641-.83162-.80036-.67134.69755.76616.73753-.30751.31959-.76627-.73753-.70769.73528Z"/>
        <path class="cls-1" d="M21.09256,62.51545l-1.91651,2.73444-.39447-.27648.32961-1.767c.06038-.26065.147-.6252.20383-.84755l-.0172-.00042c-.16432.29258-.43237.71649-.613.9743l-.73916,1.05468-.39075-.27374,1.91663-2.7345.39446.27654-.34857,1.83541c-.04659.24111-.12292.56622-.17149.77676l.01709.00041c.15769-.29144.42168-.718.59151-.9602l.74757-1.06645Z"/>
        <path class="cls-1" d="M22.78771,63.89184l-.62279-.31159-1.289,2.57609-.43943-.21984,1.28911-2.57608-.61851-.30946.205-.40949,1.68039.84093Z"/>
        <path class="cls-1" d="M23.72052,63.74305,22.511,66.85552l-.449-.1745,1.20925-3.11247Z"/>
        <path class="cls-1" d="M24.7146,66.85059l-.84909-.24094-.33051.60546-.48637-.13811,1.71955-2.9833.50021.142-.10418,3.4418-.48175-.13682Zm.026-.4587.043-.92012c.014-.22417.05078-.54594.076-.72224l-.01384-.00391c-.071.1633-.20422.45767-.31466.65445l-.44219.80685Z"/>
        <path class="cls-1" d="M26.14392,67.379l-.48744,1.04-.28054-.05669.31927-1.074Z"/>
        <path class="cls-1" d="M27.784,64.76048l.50359.04429.238,1.86923c.04067.30041.06465.62811.08861.89842l.019.00165c.07095-.26186.15629-.58.24416-.86923l.565-1.79853.49887.04373-1.10956,3.25433-.5226-.04583Z"/>
        <path class="cls-1" d="M30.70362,64.94746,30.684,68.28575l-.48158-.00291.01962-3.33829Z"/>
        <path class="cls-1" d="M32.98375,65.36068l-.69606.02522.10421,2.87944-.4911.01769-.10409-2.87944-.69133.025-.0165-.4577,1.87837-.06794Z"/>
        <path class="cls-1" d="M34.66936,67.38266l-.87577.10785-.06926.68619-.50179.06173.42513-3.41651.51607-.06356,1.24122,3.2114-.49719.06116Zm-.15417-.43273-.31792-.86442c-.074-.212-.16528-.52277-.2104-.695l-.01427.00177c-.00209.178-.01051.501-.03567.72525l-.09406.91511Z"/>
        <path class="cls-1" d="M38.64374,66.6514l.13248.43317-1.61.49216-.97582-3.19246,1.56423-.47818.13248.43323-1.10365.33742.283.92584,1.017-.31093.12964.42412-1.017.31087.29836.976Z"/>
        <path class="cls-1" d="M39.81128,63.48567l-.633.29038,1.20127,2.61871-.44662.20481-1.20127-2.61871-.62859.2884-.191-.41618,1.70829-.78359Z"/>
        <path class="cls-1" d="M41.30686,62.502l.59763.79794.80568-.60355.26318.35125-.80557.60344.86939,1.16053-.38539.28889-2.00217-2.6722,1.25977-.94386.27175.36265Z"/>
        <path class="cls-1" d="M42.49362,60.91144,44.78,63.34394l-.35088.32991-2.28647-2.43244Z"/>
        <path class="cls-1" d="M42.88638,60.54872l.53216-.63692a.94624.94624,0,0,1,1.45862-.124l.95913.80126A.95.95,0,0,1,45.984,62.049l-.53519.64063Zm2.74619,1.20672a.51439.51439,0,0,0-.11561-.79908l-.94437-.789a.507.507,0,0,0-.79959.03443l-.22621.2709,1.85957,1.55363Z"/>
        <path class="cls-1" d="M47.6496,58.859l.38516.23861-.88655,1.43128-2.83834-1.75815L45.17132,57.38l.38528.23861-.60777.98126.82313.50984.56-.90414.37706.23352-.56015.90419.86772.53757Z"/>
        <path class="cls-1" d="M47.47853,58.20551l.20751-.44525a.45347.45347,0,0,0,.668-.22535.4289.4289,0,0,0-.21351-.62565c-.60079-.28-1.22553.97043-2.12481.55144a.83947.83947,0,0,1-.3783-1.18648.87735.87735,0,0,1,1.24-.44814l-.20751.44525a.41719.41719,0,0,0-.61125.19392.37955.37955,0,0,0,.17322.55423c.59224.276,1.18444-.99492,2.12243-.55774a.976.976,0,0,1-.87576,1.74377Z"/>
      </g>
      <g>
        <path class="cls-1" d="M30.58954,15.89718c.27575.19126,2.42028,1.585,4.12389-.07179a.12536.12536,0,0,0-.00268-.181,20.70647,20.70647,0,0,0-3.13065-2.41361A.05246.05246,0,0,1,31.555,13.186V10.94963a.05286.05286,0,0,1,.05287-.05286H33.335a.12712.12712,0,0,0,.12712-.12712V9.03377a.12713.12713,0,0,0-.12713-.12713H31.60782a.05287.05287,0,0,1-.05287-.05286V6.70817a.12712.12712,0,0,0-.12711-.12712H29.692a.12712.12712,0,0,0-.12712.12712V8.85378a.05287.05287,0,0,1-.05287.05286H27.78477a.12713.12713,0,0,0-.12713.12713v1.73589a.12711.12711,0,0,0,.12711.12711H29.512a.05286.05286,0,0,1,.05287.05286v2.23642a.05247.05247,0,0,1-.02514.04473,20.70533,20.70533,0,0,0-3.13011,2.41309.12606.12606,0,0,0-.00285.1819c1.70355,1.65615,3.84779.26265,4.12351.07141A.05168.05168,0,0,1,30.58954,15.89718Z"/>
        <path class="cls-1" d="M30.5854,20.747c.34679.19146,4.157,2.20511,6.99223-.11615a.12645.12645,0,0,0,.03507-.14939,17.8737,17.8737,0,0,0-1.28465-2.32036.12863.12863,0,0,0-.10729-.05834H24.899a.1286.1286,0,0,0-.10727.05832,17.87391,17.87391,0,0,0-1.28467,2.32039.12647.12647,0,0,0,.03509.14939c2.83521,2.32124,6.64543.3076,6.99222.11614A.05244.05244,0,0,1,30.5854,20.747Z"/>
      </g>
      <g>
        <path class="cls-1" d="M35.8977,40.97988l-4.63477,2.70956a.12212.12212,0,0,1-.18375-.10543V38.54177a.12212.12212,0,0,1,.06048-.10543l4.63477-2.70955a.12212.12212,0,0,1,.18376.10542v5.04225A.12212.12212,0,0,1,35.8977,40.97988Z"/>
        <path class="cls-1" d="M25.22208,40.97988l4.63477,2.70956a.12212.12212,0,0,0,.18375-.10543V38.54177a.12212.12212,0,0,0-.06048-.10543l-4.63478-2.70955a.12211.12211,0,0,0-.18375.10542v5.04225A.12212.12212,0,0,0,25.22208,40.97988Z"/>
        <path class="cls-1" d="M39.55927,49.79636l-8.29636,4.84843a.12211.12211,0,0,1-.18373-.10543V44.90507a.12213.12213,0,0,1,.0605-.10544L39.436,39.95121a.12211.12211,0,0,1,.18373.10543v9.63429A.1221.1221,0,0,1,39.55927,49.79636Z"/>
        <path class="cls-1" d="M21.56051,49.79636l8.29635,4.84843a.12212.12212,0,0,0,.18374-.10543V44.90507a.12213.12213,0,0,0-.0605-.10544l-8.29636-4.84842a.12212.12212,0,0,0-.18374.10543v9.63429A.12211.12211,0,0,0,21.56051,49.79636Z"/>
      </g>
      <path class="cls-1" d="M22.70555,23.27442a.10519.10519,0,0,1-.10039-.07519A2.82253,2.82253,0,0,0,21.51089,21.705l-6.48224-4.49109a2.33073,2.33073,0,0,0-3.24314.58849l-.6051.8734L8.638,17.06286a.1057.1057,0,0,0-.14589.03263l-1.01962,1.607a.10572.10572,0,0,0,.03263.14591L9.9751,20.41539,4.44763,28.39354a.10572.10572,0,0,0,.02669.14711l6.30919,4.37118a.10573.10573,0,0,0,.14708-.02664L17.854,22.90837a2.01448,2.01448,0,0,1,2.74417-.26089,2.1383,2.1383,0,0,1,.83085,2.36726.10645.10645,0,0,1-.15882.06079l-2.32863-1.47722a.10573.10573,0,0,0-.1435.029L17.71158,25.193a.10573.10573,0,0,0,.03023.14956l8.63785,5.47984a.05287.05287,0,0,1-.02832.09751h-9.004a.10572.10572,0,0,0-.10573.10573v8.36714a.05287.05287,0,0,1-.02455.04464l-6.01859,3.81787a.05287.05287,0,0,1-.0779-.0628,4.34744,4.34744,0,1,0-7.65619,1.089.05144.05144,0,0,1-.02774.0797,4.34727,4.34727,0,1,0,4.416,7.12787.05172.05172,0,0,1,.08406.01079A4.34726,4.34726,0,1,0,12.354,45.13327a.05267.05267,0,0,1-.0221-.09675l4.82854-3.06294a.05287.05287,0,0,1,.08119.04464v5.48a13.31871,13.31871,0,1,0,26.63664.1446V42.01824a.05287.05287,0,0,1,.08118-.04464l4.82852,3.06292a.05267.05267,0,0,1-.0221.09675A4.34755,4.34755,0,1,0,53.18305,51.5a.05183.05183,0,0,1,.08425-.01082,4.34715,4.34715,0,1,0,4.41571-7.128.05134.05134,0,0,1-.02768-.07956,4.32566,4.32566,0,0,0,.79909-2.46886,4.34733,4.34733,0,1,0-8.455,1.38022.05268.05268,0,0,1-.07768.06259l-6.01891-3.81807a.05286.05286,0,0,1-.02455-.04464V31.02563a.10572.10572,0,0,0-.10573-.10573h-9.004a.05287.05287,0,0,1-.02832-.09751l8.6378-5.47981a.10573.10573,0,0,0,.03022-.14956l-1.0865-1.56564a.10573.10573,0,0,0-.1435-.029l-2.32859,1.47723a.10647.10647,0,0,1-.15884-.06079,2.13831,2.13831,0,0,1,.83088-2.36729,2.0144,2.0144,0,0,1,2.74411.26092l6.92349,9.97674a.10571.10571,0,0,0,.14708.02664l6.3092-4.37122a.1057.1057,0,0,0,.02668-.14707L51.176,20.46064a.05286.05286,0,0,1,.01514-.07474l2.42349-1.53749a.1057.1057,0,0,0,.03263-.14589l-1.0196-1.607a.10577.10577,0,0,0-.146-.03264l-2.49944,1.5857a.05288.05288,0,0,1-.07178-.01453l-.57619-.83168a2.33073,2.33073,0,0,0-3.24314-.58849L39.60893,21.705a2.8228,2.8228,0,0,0-1.09432,1.49429.10519.10519,0,0,1-.10039.07518Zm24.207,2.024,1.22715-.85021a.05286.05286,0,0,0,.01334-.07356l-.99213-1.432-.11518-.16629a.10575.10575,0,0,1,.02671-.14714l1.0929-.75719a.10574.10574,0,0,1,.14714.02671l.15079.21766.95652,1.38057a.05286.05286,0,0,0,.07356.01335l1.22717-.85023a.10573.10573,0,0,1,.14712.0267l.7572,1.093a.10572.10572,0,0,1-.0267.14711l-1.22715.85021a.05286.05286,0,0,0-.01335.07356l1.5451,2.2301a.10572.10572,0,0,1-.0267.14713l-1.09293.75722a.10571.10571,0,0,1-.14711-.02669l-1.5451-2.23012a.05286.05286,0,0,0-.07356-.01335l-1.22717.85023a.10574.10574,0,0,1-.14713-.0267L46.8858,25.4456A.10574.10574,0,0,1,46.9125,25.29846ZM14.234,25.44559l-.7572,1.09293a.10574.10574,0,0,1-.14713.0267L12.10253,25.715a.05286.05286,0,0,0-.07356.01335l-1.5451,2.23012a.10576.10576,0,0,1-.14716.0267l-1.09289-.75723a.10573.10573,0,0,1-.02669-.14713l1.5451-2.2301a.05286.05286,0,0,0-.01335-.07356l-1.22721-.85022a.10571.10571,0,0,1-.02669-.1471l.75724-1.09294a.10575.10575,0,0,1,.14714-.0267l1.22716.85022a.05286.05286,0,0,0,.07356-.01335l.95646-1.38057.15085-.21768a.10576.10576,0,0,1,.14714-.02669l1.0929.75719a.10575.10575,0,0,1,.02671.14714l-.11518.16629-.99214,1.432a.05287.05287,0,0,0,.01335.07356l1.22716.85022A.10573.10573,0,0,1,14.234,25.44559ZM4.87887,51.11974a2.598,2.598,0,1,1,2.3786-2.3786A2.59841,2.59841,0,0,1,4.87887,51.11974Zm2.3444-6.76022a2.598,2.598,0,1,1,2.37862-2.37858A2.59839,2.59839,0,0,1,7.22327,44.35952Zm7.13123,4.87067a2.598,2.598,0,1,1-2.37861-2.3786A2.59841,2.59841,0,0,1,14.3545,49.23019Zm9.86464-22.40528a7.3517,7.3517,0,0,0,6.31071-.92873.05118.05118,0,0,1,.06012,0,7.35166,7.35166,0,0,0,6.31065.92874.05253.05253,0,0,1,.0448.09419l-6.23961,3.95841a.27245.27245,0,0,1-.14593.04238h0a.27244.27244,0,0,1-.14592-.04238l-6.23962-3.95841A.05253.05253,0,0,1,24.21914,26.82491ZM42.29306,47.64209a11.73349,11.73349,0,1,1-23.4663-.12738V32.6108a.10572.10572,0,0,1,.10573-.10573H42.18733a.10573.10573,0,0,1,.10573.10573Zm7.27242,4.3883a2.598,2.598,0,1,1,2.37861-2.3786A2.59841,2.59841,0,0,1,49.56548,52.03039Zm1.95241-10.04947a2.598,2.598,0,1,1,2.3786,2.3786A2.59841,2.59841,0,0,1,51.51789,41.98092Zm5.14462,9.13882a2.598,2.598,0,1,1,2.3786-2.3786A2.59841,2.59841,0,0,1,56.66251,51.11974Z"/>
    </g>
  </g>
</svg>
